
<svg xmlns="http://www.w3.org/2000/svg" viewBox="0 0 512 512"><path d="M160.003 21.333h-42.667c-5.888 0-10.667 4.779-10.667 10.667s4.779 10.667 10.667 10.667h42.667c5.909 0 10.667-4.779 10.667-10.667s-4.757-10.667-10.667-10.667zM288.003 21.333h-42.667c-5.888 0-10.667 4.779-10.667 10.667s4.779 10.667 10.667 10.667h42.667c5.909 0 10.667-4.779 10.667-10.667s-4.757-10.667-10.667-10.667zM160.003 352h-42.667c-5.888 0-10.667 4.779-10.667 10.667s4.779 10.667 10.667 10.667h42.667c5.909 0 10.667-4.779 10.667-10.667S165.913 352 160.003 352zM288.003 352h-42.667c-5.888 0-10.667 4.779-10.667 10.667s4.779 10.667 10.667 10.667h42.667c5.909 0 10.667-4.779 10.667-10.667S293.891 352 288.003 352zM32.003 234.667c-5.888 0-10.667 4.779-10.667 10.667V288c0 5.888 4.779 10.667 10.667 10.667A10.658 10.658 0 0 0 42.67 288v-42.667c0-5.888-4.779-10.666-10.667-10.666zM32.003 106.667c-5.888 0-10.667 4.779-10.667 10.667V160c0 5.888 4.779 10.667 10.667 10.667A10.658 10.658 0 0 0 42.67 160v-42.667c0-5.888-4.779-10.666-10.667-10.666zM373.337 234.667c-5.888 0-10.667 4.779-10.667 10.667V288c0 5.888 4.779 10.667 10.667 10.667A10.658 10.658 0 0 0 384.004 288v-42.667c-.001-5.888-4.779-10.666-10.667-10.666zM373.337 106.667c-5.888 0-10.667 4.779-10.667 10.667V160c0 5.888 4.779 10.667 10.667 10.667A10.658 10.658 0 0 0 384.004 160v-42.667c-.001-5.888-4.779-10.666-10.667-10.666zM394.67 0h-42.667c-5.888 0-10.667 4.779-10.667 10.667v42.667c0 5.888 4.779 10.667 10.667 10.667h42.667a10.658 10.658 0 0 0 10.667-10.667V10.667A10.658 10.658 0 0 0 394.67 0zm-10.667 42.667H362.67V21.333h21.333v21.334zM53.337 0H10.67C4.782 0 .003 4.779.003 10.667v42.667C.003 59.221 4.782 64 10.67 64h42.667a10.658 10.658 0 0 0 10.667-10.667V10.667C64.003 4.779 59.246 0 53.337 0zM42.67 42.667H21.337V21.333H42.67v21.334zM53.337 330.667H10.67c-5.888 0-10.667 4.779-10.667 10.667V384c0 5.888 4.779 10.667 10.667 10.667h42.667A10.658 10.658 0 0 0 64.004 384v-42.667a10.657 10.657 0 0 0-10.667-10.666zM42.67 373.333H21.337V352H42.67v21.333zM506.521 385.344l-192-106.667c-3.947-2.197-8.875-1.664-12.224 1.323-3.392 2.987-4.544 7.787-2.859 11.968l85.333 213.333a10.637 10.637 0 0 0 9.771 6.699h.128c4.267 0 8.128-2.539 9.813-6.485l30.315-70.741 70.741-30.315c3.733-1.6 6.229-5.205 6.443-9.259.213-4.053-1.92-7.872-5.461-9.856zm-84.075 31.509a10.761 10.761 0 0 0-5.611 5.611l-21.845 50.987-64.619-161.557 146.752 81.515-54.677 23.444z"/></svg>
